<?xml version="1.0" encoding="UTF-8"?>
<svg id="Layer_1" data-name="Layer 1" xmlns="http://www.w3.org/2000/svg" width="477.8" height="113.386" viewBox="0 0 477.8 113.386">
  <g>
    <path d="M265.6,82.443c-.9,0-1.8.4-2.7,1.3-.9.9-1.9,1.8-3.2,2.9-1.2,1-2.7,2-4.4,2.9-1.7.9-3.9,1.3-6.4,1.3s-3.9-.4-5.7-1.3c-1.8-.8-3.4-2-4.7-3.6-1.4-1.6-2.5-3.5-3.3-5.8s-1.2-4.9-1.2-7.8.3-6.2.9-8.9,1.5-5,2.6-7,2.5-3.5,4-4.5,3.2-1.6,5.1-1.6,3.8.6,4.8,1.7c1.1,1.1,2,2.3,2.7,3.6.8,1.3,1.5,2.5,2.4,3.6.8,1.1,2,1.7,3.6,1.7s3.7-.5,4.9-1.4c1.2-.9,1.8-2.2,1.8-3.8s-.6-3-1.7-4.3c-1.1-1.4-2.6-2.6-4.5-3.6s-4-1.8-6.4-2.4c-2.4-.6-4.9-.9-7.4-.9-4,0-7.7.7-11.1,2.1-3.4,1.4-6.3,3.3-8.8,5.8s-4.4,5.4-5.8,8.8c-1.4,3.4-2.2,7.1-2.2,11.2s.7,7.5,2,10.7c1.4,3.2,3.2,6,5.6,8.3,2.4,2.3,5.2,4.1,8.4,5.4,3.3,1.3,6.8,1.9,10.6,1.9s6.2-.5,9-1.5,5.1-2.2,7.1-3.6c2-1.4,3.6-2.9,4.7-4.5s1.7-2.9,1.7-4.1-.3-1.4-.8-1.9-1.2-.7-1.9-.7h.3ZM154.6,92.643c-.5-.3-1.1-.6-1.7-.9-.6-.3-1.2-.7-1.7-1.4s-.8-1.8-.8-3.4V21.443c0-1.6-.1-2.8-.4-3.8-.3-.9-.6-1.6-1-2s-.8-.7-1.2-.8-.9-.2-1.3-.2c-1.1,0-2.5.2-4.3.7-1.8.4-3.6,1-5.3,1.6-1.7.6-3.2,1.3-4.5,2-1.3.7-1.9,1.4-1.9,2,0,1.2.3,2,.9,2.4s1.3.8,2,1.1,1.4.8,2,1.3.9,1.5.9,2.9v58.3c0,1.7-.3,2.8-.8,3.4-.5.6-1.1,1.1-1.7,1.4-.6.3-1.2.6-1.7.9-.5.3-.8,1-.8,1.9s.4,1.8,1.1,2.2c.7.4,1.6.7,2.7.7h16.5c1.1,0,2-.2,2.7-.7s1.1-1.2,1.1-2.2-.3-1.7-.8-2h0v.1ZM109.9,80.543c-.7,2.6-1.7,4.7-3,6.4s-2.8,3-4.6,3.9c-1.8.9-3.6,1.3-5.6,1.3s-3.9-.4-5.6-1.3c-1.8-.9-3.3-2.1-4.6-3.9-1.3-1.7-2.3-3.8-3-6.4s-1.1-5.6-1.1-9,.2-4.6.7-7,1.3-4.7,2.4-6.7,2.6-3.7,4.4-4.9c1.8-1.3,4-1.9,6.8-1.9,4.3,0,7.8,1.8,10.4,5.3s4,8.6,4,15.2-.4,6.4-1.1,9h-.1ZM117.3,52.043c-2.6-2.4-5.7-4.2-9.2-5.5-3.6-1.3-7.3-2-11.3-2s-7.8.7-11.3,2c-3.6,1.3-6.6,3.2-9.3,5.5-2.6,2.4-4.7,5.3-6.2,8.6s-2.3,7-2.3,11,.8,7.7,2.3,11,3.6,6.1,6.2,8.5c2.6,2.4,5.7,4.2,9.3,5.5,3.6,1.3,7.3,2,11.3,2s7.8-.7,11.3-2c3.6-1.3,6.6-3.2,9.2-5.5,2.6-2.4,4.7-5.2,6.2-8.5s2.3-7,2.3-11-.8-7.6-2.3-11c-1.5-3.3-3.6-6.2-6.2-8.6ZM56,68.443c-2.2-1-4.5-1.8-6.9-2.3-2.5-.5-4.8-1.1-6.9-1.7-2.1-.6-3.9-1.4-5.4-2.2-1.4-.9-2.2-2.2-2.2-3.9s.1-1.6.4-2.4c.3-.8.8-1.6,1.4-2.3s1.5-1.3,2.6-1.7c1.1-.4,2.5-.7,4.1-.7,2.8,0,4.9.4,6.4,1.4,1.5.9,2.7,1.9,3.6,3,.9,1.1,1.8,2.1,2.5,3,.8.9,1.7,1.4,3,1.4s.8,0,1.1-.2c.3-.1.5-.4.8-.9.2-.5.4-1.2.4-2.1s.1-2.2.1-3.9-.5-2.2-1.4-3.2-2.2-1.8-3.8-2.6-3.5-1.4-5.6-1.8c-2.1-.4-4.5-.7-7-.7s-5.3.3-7.9,1-5,1.7-7.1,3.2c-2.1,1.4-3.8,3.2-5.2,5.4-1.3,2.2-2,4.8-2,7.8s.7,5.8,2.1,7.6,3.1,3.2,5.3,4.2c2.1,1,4.4,1.7,6.9,2.2,2.5.5,4.8,1.1,6.9,1.7s3.9,1.4,5.3,2.4c1.4,1,2.1,2.4,2.1,4.4s-1,4.1-2.9,5.5c-1.9,1.5-4.2,2.2-7,2.2s-3.4-.3-4.7-.8-2.3-1.2-3.2-2c-.9-.8-1.7-1.6-2.3-2.6-.6-.9-1.2-1.8-1.8-2.6-.6-.8-1.2-1.4-1.8-2-.6-.5-1.4-.8-2.4-.8-1.4,0-2.5.6-3.2,1.8s-1.1,2.5-1.1,3.7.5,2,1.5,3.3c1,1.3,2.4,2.6,4.2,3.9,1.8,1.3,4,2.3,6.5,3.2,2.5.9,5.4,1.3,8.5,1.3s6.6-.4,9.5-1.3c2.9-.9,5.4-2.1,7.4-3.7,2-1.6,3.6-3.5,4.8-5.9,1.1-2.3,1.7-4.9,1.7-7.8s-.7-5.5-2.2-7.3c-1.4-1.8-3.2-3.2-5.4-4.2h.3ZM195.2,80.543c0,.9-.2,2.1-.6,3.4s-1,2.6-1.9,3.9c-.9,1.3-2,2.4-3.3,3.3-1.3.9-3,1.4-4.9,1.4s-2.7-.3-3.9-.9c-1.2-.6-2.2-1.3-3.1-2.3s-1.5-2-2-3.3c-.5-1.2-.7-2.5-.7-3.7,0-1.8.5-3.6,1.5-5.3,1-1.7,2.3-3.2,4.1-4.6,1.8-1.3,3.9-2.4,6.4-3.3,2.5-.8,5.3-1.3,8.4-1.4v12.6h0v.2ZM213.7,92.443c-.6-.4-1.2-.7-1.8-1s-1.3-.8-1.8-1.4c-.6-.6-.9-1.5-.9-2.8v-23.9c0-2.4-.4-4.7-1.3-7s-2.3-4.3-4.3-6c-2-1.8-4.6-3.2-7.8-4.2s-7.2-1.6-12-1.6-4.7.2-7.1.6c-2.4.4-4.6,1-6.5,1.7s-3.5,1.6-4.7,2.7c-1.2,1-1.8,2.2-1.8,3.5s.4,2.4,1.3,3.2c.9.8,2,1.1,3.4,1.1s3.1-.3,4.2-1c1.1-.7,2.2-1.4,3.2-2.2s2.2-1.5,3.5-2.2c1.3-.7,3-1,5.2-1,3.5,0,6.2,1,8,3.1,1.8,2.1,2.7,4.7,2.7,8-4,0-8.1.4-12.3,1.1-4.2.8-7.9,2-11.3,3.6-3.4,1.6-6.2,3.8-8.4,6.4-2.2,2.6-3.3,5.7-3.3,9.3s.4,4.1,1.2,6.1,2,3.7,3.7,5.2c1.6,1.5,3.6,2.7,5.9,3.5,2.3.9,5,1.3,8.1,1.3s6.7-.6,9.8-1.7c3.1-1.1,5.5-2.9,7.1-5.3h.4v1.2c0,1.7.3,2.9,1,3.6.7.7,1.8,1.1,3.5,1.1h9c2.1,0,3.4-.3,3.9-.9.5-.6.8-1.4.8-2.3s-.3-1.5-.9-1.8h.3ZM287.6,71.043c0-3,.3-5.8,1-8.4.7-2.5,1.7-4.7,3-6.5s2.8-3.2,4.6-4.2c1.8-1,3.8-1.5,6.1-1.5s4.7.7,6,2.2,1.9,3.3,1.9,5.5-.7,4.4-2.2,6c-1.5,1.6-3.3,3-5.5,4s-4.7,1.8-7.3,2.4c-2.6.6-5.2,1-7.5,1.2v-.7h-.1ZM322.5,81.943c-.8,0-1.5.2-2,.6s-1.2,1-1.9,1.7c-.8.7-1.7,1.5-2.7,2.2-1,.8-2.1,1.5-3.4,2.1-1.3.7-2.6,1.2-4.1,1.6-1.5.4-3.1.6-4.9.6s-3.3-.3-4.9-.8-3.1-1.4-4.5-2.5c-1.4-1.1-2.6-2.5-3.6-4.2-1-1.7-1.6-3.6-2-5.8,3.9-.2,7.9-.7,12.1-1.3,4.2-.7,8-1.6,11.6-3,3.5-1.3,6.4-3.1,8.6-5.3,2.3-2.2,3.4-5,3.4-8.4s-.7-5-2-6.9-3-3.5-5.1-4.7c-2-1.2-4.3-2.1-6.7-2.6-2.4-.5-4.8-.8-7.1-.8-5.2,0-9.8.7-13.6,2.2-3.8,1.5-7,3.5-9.5,6.1-2.5,2.6-4.4,5.6-5.6,9-1.2,3.4-1.8,7.1-1.8,11s.7,7.1,2.1,10.3,3.3,5.9,5.8,8.1c2.5,2.3,5.4,4.1,8.7,5.4,3.3,1.3,6.9,2,10.8,2s6.4-.5,9.4-1.5,5.6-2.2,7.9-3.6c2.3-1.4,4.1-3,5.5-4.6s2-3.2,2-4.5-.8-2.5-2.5-2.5h0v.1ZM338.5,83.043c-4.2,0-7.7,3.5-7.7,7.8s3.4,7.8,7.7,7.8,7.7-3.5,7.7-7.8-3.4-7.8-7.7-7.8Z" fill="#3dba91"/>
    <rect x="357.3" y="34.12" width="101.1" height="64.2" rx="32.1" ry="32.1" fill="#fff" stroke="#0d3c5f" stroke-miterlimit="10" stroke-width="2.7"/>
  </g>
  <g>
    <path d="M390.338,80.261v-28.861h4.041v28.861h-4.041Z" fill="#0d3c5f"/>
    <path d="M411.612,80.261v-28.861h8.906c2.748,0,5.188.612,7.318,1.835,2.13,1.223,3.8,2.921,5.009,5.092,1.209,2.172,1.814,4.673,1.814,7.504,0,2.804-.605,5.292-1.814,7.462-1.209,2.172-2.879,3.875-5.009,5.112-2.13,1.237-4.57,1.855-7.318,1.855h-8.906ZM415.653,76.468h4.865c1.401,0,2.707-.268,3.917-.804,1.209-.536,2.274-1.292,3.195-2.268.92-.975,1.635-2.109,2.144-3.401.508-1.292.763-2.68.763-4.164s-.254-2.872-.763-4.164c-.509-1.292-1.224-2.426-2.144-3.402-.921-.975-1.986-1.731-3.195-2.268-1.21-.536-2.515-.804-3.917-.804h-4.865v21.274Z" fill="#0d3c5f"/>
  </g>
</svg>